<?xml version="1.0" encoding="UTF-8" standalone="no"?>
<!DOCTYPE svg PUBLIC "-//W3C//DTD SVG 1.1//EN" "http://www.w3.org/Graphics/SVG/1.1/DTD/svg11.dtd">
<svg width="100%" height="100%" viewBox="0 0 1280 100" version="1.1" xmlns="http://www.w3.org/2000/svg" xmlns:xlink="http://www.w3.org/1999/xlink" xml:space="preserve" xmlns:serif="http://www.serif.com/" style="fill-rule:evenodd;clip-rule:evenodd;stroke-linejoin:round;stroke-miterlimit:2;">
    <rect id="Artboard1" x="0" y="-0" width="1280" height="99.704" style="fill:none;"/>
    <clipPath id="_clip1">
        <rect id="Artboard11" serif:id="Artboard1" x="0" y="-0" width="1280" height="99.704"/>
    </clipPath>
    <g clip-path="url(#_clip1)">
        <g transform="matrix(1,0,0,1,0,1)">
            <g id="Group_7147">
                <path id="Rectangle_16956" d="M1064,39L955,39L955,9L745,9L745,19L535,19L535,39L325,39L325,55L70,55L70,39L0,39L0,565L70,565L70,828L325,828L325,759L535,759L535,787L745,787L745,821L955,821L955,759L1210,759L1210,702L1280,702L1280,9L1210,9L1210,39L1105,39L1105,80L1064,80L1064,39ZM1064,-0L1064,39L1105,39L1105,-0L1064,-0Z" style="fill:rgb(252,252,255);"/>
            </g>
        </g>
    </g>
</svg>
