<svg xmlns="http://www.w3.org/2000/svg" width="551.648" height="468.922" viewBox="0 0 551.648 468.922">
  <g id="ship" transform="matrix(-0.695, 0.719, -0.719, -0.695, 525.495, 278.591)">
    <path id="Path_13075" data-name="Path 13075" d="M144,120.348v.041c0,171.127-63.26,318.589-63.9,319.689l-2.035,3.491-1.96-3.532c-.637-1.158-63.888-149.778-63.888-319.664,0-54.2,6.476-105.2,19.256-151.573C37.138-51.788,58.982-61,78.114-61s40.985,9.214,46.651,29.8C137.527,15.186,144,66.171,144,120.348Z" transform="translate(88.827 62.112)" fill="#fff"/>
    <path id="Path_13076" data-name="Path 13076" d="M31.66-32.608C-29.771,190.447,76.119,436.992,76.094,436.9c-.033.1,105.874-246.429,44.442-469.5C110.206-70.094,41.983-70.1,31.66-32.608Z" transform="translate(90.847 64.132)" fill="#1f3661"/>
    <path id="Path_13080" data-name="Path 13080" d="M22.163,94.446,21.154,95.58l-1.29-1A754.128,754.128,0,0,1,13.743.715c0-14.748.521-29.612,1.53-44.194l1.216-1.067,1.075,1.224C16.555-28.8,16.034-13.983,16.034.715A749.779,749.779,0,0,0,22.147,94.3Z" transform="translate(99.931 181.77)" fill="#fdfdfd"/>
    <path id="Path_13081" data-name="Path 13081" d="M34.018.69a752.472,752.472,0,0,1-6.129,93.889l-1.282,1-1-1.282A749.572,749.572,0,0,0,31.727.732c0-14.723-.513-29.529-1.53-44.053l1.067-1.224,1.224,1.067C33.505-28.9,34.018-14.041,34.018.69Z" transform="translate(186.191 181.77)" fill="#fdfdfd"/>
    <path id="Path_13082" data-name="Path 13082" d="M40.582-30.218V-53.949c-1.6.157-4.342.678-4.855,2.506-2.829,10.265-5.31,20.348-7.436,30.381A20.15,20.15,0,0,1,40.582-30.218Zm32.672,0a20.149,20.149,0,0,1,12.3,9.165c-2.142-10.033-4.615-20.116-7.444-30.381-.5-1.828-3.259-2.357-4.855-2.515ZM17.422,86.235c0,55.939,7.113,115.609,21.158,177.347a13.884,13.884,0,0,0,12.97,10.29H62.286A13.9,13.9,0,0,0,75.264,263.59c14.028-61.738,21.15-121.407,21.15-177.339A508.411,508.411,0,0,0,88.44-6.471V51.421A20.167,20.167,0,0,1,68.291,71.561H45.545A20.169,20.169,0,0,1,25.388,51.421V-6.446A508.7,508.7,0,0,0,17.422,86.235Zm81.283.017c0,56.1-7.138,115.948-21.208,177.851-1.514,6.65-8.338,12.068-15.211,12.068H51.55c-6.882,0-13.7-5.418-15.219-12.068-14.07-61.92-21.2-121.755-21.2-177.868,0-49.471,5.666-92.118,18.379-138.281,1.2-4.334,7.949-4.268,8.23-4.26l1.133.017v27.924l-.918.182A17.9,17.9,0,0,0,27.687-10.689v62.11A17.876,17.876,0,0,0,45.545,69.27H68.291a17.874,17.874,0,0,0,17.85-17.85v-62.11A17.9,17.9,0,0,0,71.873-28.183l-.918-.182V-56.289l1.125-.017c.3-.008,7.047-.066,8.247,4.26C93.039-5.875,98.705,36.772,98.705,86.251Z" transform="translate(110.023 96.25)" fill="#fdfdfd"/>
    <path id="Path_13083" data-name="Path 13083" d="M86.039-42.93A18.983,18.983,0,0,1,67.288-26.85H44.541a18.991,18.991,0,0,1-18.76-16.08H16.129c-.554,10.257-.86,20.836-.86,31.894,0,64.806,9.578,126.552,21.183,177.6a15.108,15.108,0,0,0,14.094,11.183H61.283a15.123,15.123,0,0,0,14.094-11.183C86.974,115.517,96.56,53.787,96.56-11.019c0-11.067-.306-21.655-.86-31.911Z" transform="translate(111.027 193.521)" fill="#f7f9fe"/>
    <path id="Path_13084" data-name="Path 13084" d="M15.694-45.981h9.057A19.994,19.994,0,0,0,41.559-36.8H64.09A19.994,19.994,0,0,0,80.9-45.981h9.057C72.5-65.634,33.147-65.634,15.694-45.981Z" transform="translate(114.117 64.155)" fill="#f7931d"/>
    <path id="Path_13085" data-name="Path 13085" d="M50.88-55.157V6.109a16.336,16.336,0,0,1-32.672,0V-55.157l1.15-1.15,1.141,1.15V6.109a14.045,14.045,0,0,0,28.09,0V-55.157l1.141-1.15Z" transform="translate(132.397 96.251)" fill="#fdfdfd"/>
    <path id="Path_13086" data-name="Path 13086" d="M15.556-47.985H39.783v-9.628H15.556Z" transform="translate(113.114 86.755)" fill="#9898a9"/>
    <path id="Path_13087" data-name="Path 13087" d="M21.881-47.985H46.116v-9.628H21.881Z" transform="translate(159.105 86.755)" fill="#9898a9"/>
    <path id="Path_13088" data-name="Path 13088" d="M19.581,2.836h9.95v-9.95h-9.95Z" transform="translate(142.381 453.953)" fill="#f7931d"/>
    <path id="Path_13095" data-name="Path 13095" d="M64.834-32.212a12.922,12.922,0,0,1,12.92,12.92A12.92,12.92,0,0,1,64.834-6.38H29.4a12.92,12.92,0,0,1-12.92-12.912A12.922,12.922,0,0,1,29.4-32.212Z" transform="translate(119.825 271.455)" fill="#cdcee4"/>
    <path id="Path_13097" data-name="Path 13097" d="M16.479-30.706H28v-3.449H16.479Z" transform="translate(119.825 257.327)"/>
    <path id="Path_13098" data-name="Path 13098" d="M22.494-30.706H34.016v-3.449H22.494Z" transform="translate(163.563 257.327)"/>
    <path id="Path_13099" data-name="Path 13099" d="M24.56-18.356a4.97,4.97,0,0,1,4.971,4.971A4.972,4.972,0,0,1,24.56-8.406a4.979,4.979,0,0,1-4.979-4.979A4.977,4.977,0,0,1,24.56-18.356Z" transform="translate(142.381 372.208)" fill="#cdcee4"/>
    <path id="Path_13100" data-name="Path 13100" d="M19.524-17.423h10.91v-10.9H19.524Z" transform="translate(141.967 299.719)" fill="#6e82cd"/>
    <path id="Path_13101" data-name="Path 13101" d="M100.618-27.954l2.357,6.468L10.22,10.649l-1.307-3.6Z" transform="translate(64.81 302.417)" fill="#9898a9"/>
    <path id="Path_13102" data-name="Path 13102" d="M22.413,6.744,20.056.259l92.755-32.118,1.315,3.59Z" transform="translate(145.835 274.022)" fill="#9898a9"/>
    <path id="Path_13103" data-name="Path 13103" d="M135.774,276.2l-6.477,2.357L4.706-68.237,8.3-69.544Z" transform="translate(34.219)" fill="#9898a9"/>
    <path id="Path_13104" data-name="Path 13104" d="M19.79-25.331l6.46-2.357L58.384,65.067l-3.59,1.315Z" transform="translate(143.901 304.351)" fill="#9898a9"/>
    <path id="Path_13105" data-name="Path 13105" d="M169.674,369.585S-32.785,41.219,9.9-69.386Z" transform="translate(29.021 1.149)" fill="#cdcee4"/>
  </g>
</svg>
