<svg xmlns="http://www.w3.org/2000/svg" style="display: none;">
  <symbol id="add" width="100%" height="100%" viewBox="0 0 24 24" fill="none" stroke="currentColor">
    <path stroke-linecap="round" stroke-linejoin="round" stroke-width="2" d="M12 9v3m0 0v3m0-3h3m-3 0H9m12 0a9 9 0 11-18 0 9 9 0 0118 0z" />
  </symbol>
  <symbol id="lines" width="100%" height="100%" viewBox="0 0 24 24" fill="none" stroke="currentColor">
    <path stroke-linecap="round" stroke-linejoin="round" stroke-width="2" d="M4 6h16M4 12h16M4 18h16" />
  </symbol>
  <symbol id="chevron-right" viewBox="0 0 9.345 16" fill="currentColor" stroke="none">
    <path d="M8.93,3.586,7.586,4.93l6.655,6.655L7.586,18.241,8.93,19.586l8-8Z" transform="translate(-7.586 -3.586)" fill="currentColor" />
  </symbol>
  <symbol id="search" width="100%" height="100%" viewBox="0 0 24 24" fill="none">
    <path fill-rule="evenodd" clip-rule="evenodd" d="M11 2C6.02944 2 2 6.02944 2 11C2 15.9706 6.02944 20 11 20C13.125 20 15.078 19.2635 16.6177 18.0319L21 22.4142L22.4142 21L18.0319 16.6177C19.2635 15.078 20 13.125 20 11C20 6.02944 15.9706 2 11 2ZM4 11C4 7.13401 7.13401 4 11 4C14.866 4 18 7.13401 18 11C18 14.866 14.866 18 11 18C7.13401 18 4 14.866 4 11Z" fill="currentColor" />
  </symbol>
  <symbol id="pencil" width="100%" height="100%" viewBox="0 0 24 24" fill="none">
    <path fill-rule="evenodd" clip-rule="evenodd" d="M16.4493 1.89346L22.1061 7.55032L9.0853 20.5711L3.42845 20.5711L3.42845 14.9143L16.4493 1.89346ZM16.4493 4.72189L15.0262 6.14495L17.8546 8.97337L19.2777 7.55032L16.4493 4.72189ZM16.4404 10.3876L13.612 7.55916L5.42845 15.7427L5.42845 18.5711L8.25688 18.5711L16.4404 10.3876Z" fill="currentColor" />
  </symbol>
  <symbol id="calendar" width="100%" height="100%" viewBox="0 0 24 24" fill="none">
    <path d="M6 9.375H8.5V11.875H6V9.375Z" fill="currentColor" />
    <path d="M8.5 14.125H6V16.625H8.5V14.125Z" fill="currentColor" />
    <path d="M10.75 9.375H13.25V11.875H10.75V9.375Z" fill="currentColor" />
    <path d="M13.25 14.125H10.75V16.625H13.25V14.125Z" fill="currentColor" />
    <path d="M15.5 9.375H18V11.875H15.5V9.375Z" fill="currentColor" />
    <path d="M18 14.125H15.5V16.625H18V14.125Z" fill="currentColor" />
    <path fill-rule="evenodd" clip-rule="evenodd" d="M5 5H2V21H22V5H19V2H17V5H7V2H5V5ZM4 7V19H20V7H4Z" fill="currentColor" />
  </symbol>
  <symbol id="search-circle" width="100%" height="100%" viewBox="0 0 20 20" fill="currentColor">
    <path d="M9 9a2 2 0 114 0 2 2 0 01-4 0z" />
    <path fill-rule="evenodd" d="M10 18a8 8 0 100-16 8 8 0 000 16zm1-13a4 4 0 00-3.446 6.032l-2.261 2.26a1 1 0 101.414 1.415l2.261-2.261A4 4 0 1011 5z" clip-rule="evenodd" />
  </symbol>
  <symbol id="users" width="100%" height="100%" viewBox="0 0 20 20" fill="currentColor">
    <path d="M9 6a3 3 0 11-6 0 3 3 0 016 0zM17 6a3 3 0 11-6 0 3 3 0 016 0zM12.93 17c.046-.327.07-.66.07-1a6.97 6.97 0 00-1.5-4.33A5 5 0 0119 16v1h-6.07zM6 11a5 5 0 015 5v1H1v-1a5 5 0 015-5z" />
  </symbol>
  <symbol id="help" width="100%" height="100%" viewBox="0 0 20 20" fill="currentColor">
    <path fill-rule="evenodd" d="M18 10a8 8 0 11-16 0 8 8 0 0116 0zm-2 0c0 .993-.241 1.929-.668 2.754l-1.524-1.525a3.997 3.997 0 00.078-2.183l1.562-1.562C15.802 8.249 16 9.1 16 10zm-5.165 3.913l1.58 1.58A5.98 5.98 0 0110 16a5.976 5.976 0 01-2.516-.552l1.562-1.562a4.006 4.006 0 001.789.027zm-4.677-2.796a4.002 4.002 0 01-.041-2.08l-.08.08-1.53-1.533A5.98 5.98 0 004 10c0 .954.223 1.856.619 2.657l1.54-1.54zm1.088-6.45A5.974 5.974 0 0110 4c.954 0 1.856.223 2.657.619l-1.54 1.54a4.002 4.002 0 00-2.346.033L7.246 4.668zM12 10a2 2 0 11-4 0 2 2 0 014 0z" clip-rule="evenodd" />
  </symbol>
  <symbol id="cog" width="100%" height="100%" viewBox="0 0 20 20" fill="currentColor">
    <path fill-rule="evenodd" d="M11.49 3.17c-.38-1.56-2.6-1.56-2.98 0a1.532 1.532 0 01-2.286.948c-1.372-.836-2.942.734-2.106 2.106.54.886.061 2.042-.947 2.287-1.561.379-1.561 2.6 0 2.978a1.532 1.532 0 01.947 2.287c-.836 1.372.734 2.942 2.106 2.106a1.532 1.532 0 012.287.947c.379 1.561 2.6 1.561 2.978 0a1.533 1.533 0 012.287-.947c1.372.836 2.942-.734 2.106-2.106a1.533 1.533 0 01.947-2.287c1.561-.379 1.561-2.6 0-2.978a1.532 1.532 0 01-.947-2.287c.836-1.372-.734-2.942-2.106-2.106a1.532 1.532 0 01-2.287-.947zM10 13a3 3 0 100-6 3 3 0 000 6z" clip-rule="evenodd" />
  </symbol>
  <symbol id="grid" width="100%" height="100%" viewBox="0 0 20 20" fill="currentColor">
    <path d="M5 3a2 2 0 00-2 2v2a2 2 0 002 2h2a2 2 0 002-2V5a2 2 0 00-2-2H5zM5 11a2 2 0 00-2 2v2a2 2 0 002 2h2a2 2 0 002-2v-2a2 2 0 00-2-2H5zM11 5a2 2 0 012-2h2a2 2 0 012 2v2a2 2 0 01-2 2h-2a2 2 0 01-2-2V5zM11 13a2 2 0 012-2h2a2 2 0 012 2v2a2 2 0 01-2 2h-2a2 2 0 01-2-2v-2z" />
  </symbol>
  <symbol id="expand" width="100%" height="100%" viewBox="0 0 20 20" fill="currentColor">
    <path fill-rule="evenodd" d="M3 4a1 1 0 011-1h4a1 1 0 010 2H6.414l2.293 2.293a1 1 0 01-1.414 1.414L5 6.414V8a1 1 0 01-2 0V4zm9 1a1 1 0 110-2h4a1 1 0 011 1v4a1 1 0 11-2 0V6.414l-2.293 2.293a1 1 0 11-1.414-1.414L13.586 5H12zm-9 7a1 1 0 112 0v1.586l2.293-2.293a1 1 0 011.414 1.414L6.414 15H8a1 1 0 110 2H4a1 1 0 01-1-1v-4zm13-1a1 1 0 011 1v4a1 1 0 01-1 1h-4a1 1 0 110-2h1.586l-2.293-2.293a1 1 0 011.414-1.414L15 13.586V12a1 1 0 011-1z" clip-rule="evenodd" />
  </symbol>
  <symbol id="tag" width="100%" height="100%" viewBox="0 0 20 20" fill="currentColor">
  <path fill-rule="evenodd" d="M17.707 9.293a1 1 0 010 1.414l-7 7a1 1 0 01-1.414 0l-7-7A.997.997 0 012 10V5a3 3 0 013-3h5c.256 0 .512.098.707.293l7 7zM5 6a1 1 0 100-2 1 1 0 000 2z" clip-rule="evenodd" />
 </symbol>
  <symbol id="temp_icon" width="18.769" height="40" viewBox="0 0 18.769 40">

  <g id="Group_7148" data-name="Group 7148" transform="translate(0 990.996)">
    <path id="Path_8432" data-name="Path 8432" d="M9.384-952.473a7.793,7.793,0,0,1-7.873-7.692,7.68,7.68,0,0,1,4.023-6.709l.386-.212v-19.356a3.117,3.117,0,0,1,3.149-3.077,3.117,3.117,0,0,1,3.149,3.077v19.085l.441.2a7.708,7.708,0,0,1,4.6,6.995A7.793,7.793,0,0,1,9.384-952.473Zm4.346-15.818v-18.151A4.613,4.613,0,0,0,9.07-991a4.613,4.613,0,0,0-4.661,4.554v18.5A9.14,9.14,0,0,0,0-960.165,9.289,9.289,0,0,0,9.384-951a9.289,9.289,0,0,0,9.384-9.169A9.174,9.174,0,0,0,13.73-968.292Z" transform="translate(0 0)" fill="currentColor"/>
    <path id="Path_8433" data-name="Path 8433" d="M109.033-712.3v-15.252s-.157-.7-1.24-.7-1.28.7-1.28.7v15.348a4.879,4.879,0,0,0-3.527,4.652,4.92,4.92,0,0,0,4.976,4.862,4.92,4.92,0,0,0,4.976-4.862A4.89,4.89,0,0,0,109.033-712.3Z" transform="translate(-98.83 -252.611)" fill="#1f6eae"/>
    <path id="Path_8434" data-name="Path 8434" d="M361-881.651h4.2V-883H361Z" transform="translate(-346.429 -103.641)" fill="currentColor"/>
    <path id="Path_8435" data-name="Path 8435" d="M361-821.651h4.2V-823H361Z" transform="translate(-346.429 -161.219)" fill="currentColor"/>
    <path id="Path_8436" data-name="Path 8436" d="M361-762.762h4.2v-1.345H361Z" transform="translate(-346.429 -217.731)" fill="currentColor"/>
    <path id="Path_8437" data-name="Path 8437" d="M361-702.762h4.2v-1.345H361Z" transform="translate(-346.429 -275.309)" fill="currentColor"/>
    <path id="Path_8438" data-name="Path 8438" d="M361-643.873h4.2v-1.345H361Z" transform="translate(-346.429 -331.821)" fill="currentColor"/>
    <path id="Path_8439" data-name="Path 8439" d="M361-583.873h4.2v-1.345H361Z" transform="translate(-346.429 -389.399)" fill="currentColor"/>
    <path id="Path_8440" data-name="Path 8440" d="M361-524.985h4.2v-1.345H361Z" transform="translate(-346.429 -445.91)" fill="currentColor"/>
    <path id="Path_8441" data-name="Path 8441" d="M361-464.985h4.2v-1.345H361Z" transform="translate(-346.429 -503.489)" fill="currentColor"/>
  </g>



 </symbol>
</svg>