<svg xmlns="http://www.w3.org/2000/svg" style="display: none">

  <symbol id="lines" width="100%" height="100%" viewBox="0 0 24 24" fill="none" stroke="currentColor">
    <path stroke-linecap="round" stroke-linejoin="round" stroke-width="2" d="M4 6h16M4 12h16M4 18h16" />
  </symbol>
  <symbol id="search" width="100%" height="100%" viewBox="0 0 24 24" fill="none">
    <path fill-rule="evenodd" clip-rule="evenodd" d="M11 2C6.02944 2 2 6.02944 2 11C2 15.9706 6.02944 20 11 20C13.125 20 15.078 19.2635 16.6177 18.0319L21 22.4142L22.4142 21L18.0319 16.6177C19.2635 15.078 20 13.125 20 11C20 6.02944 15.9706 2 11 2ZM4 11C4 7.13401 7.13401 4 11 4C14.866 4 18 7.13401 18 11C18 14.866 14.866 18 11 18C7.13401 18 4 14.866 4 11Z" fill="currentColor" />
  </symbol>
  <symbol id="pencil" width="100%" height="100%" viewBox="0 0 24 24" fill="none">
    <path fill-rule="evenodd" clip-rule="evenodd" d="M16.4493 1.89346L22.1061 7.55032L9.0853 20.5711L3.42845 20.5711L3.42845 14.9143L16.4493 1.89346ZM16.4493 4.72189L15.0262 6.14495L17.8546 8.97337L19.2777 7.55032L16.4493 4.72189ZM16.4404 10.3876L13.612 7.55916L5.42845 15.7427L5.42845 18.5711L8.25688 18.5711L16.4404 10.3876Z" fill="currentColor" />
  </symbol>
  <symbol id="trash" width="100%" height="100%" viewBox="0 0 24 24" fill="none" stroke="currentColor">
  <path stroke-linecap="round" stroke-linejoin="round" stroke-width="2" d="M19 7l-.867 12.142A2 2 0 0116.138 21H7.862a2 2 0 01-1.995-1.858L5 7m5 4v6m4-6v6m1-10V4a1 1 0 00-1-1h-4a1 1 0 00-1 1v3M4 7h16" />
 </symbol>
  <symbol id="calendar" width="100%" height="100%" viewBox="0 0 20 20" fill="currentColor">
    <path fill-rule="evenodd" d="M6 2a1 1 0 00-1 1v1H4a2 2 0 00-2 2v10a2 2 0 002 2h12a2 2 0 002-2V6a2 2 0 00-2-2h-1V3a1 1 0 10-2 0v1H7V3a1 1 0 00-1-1zm0 5a1 1 0 000 2h8a1 1 0 100-2H6z" clip-rule="evenodd" />
  </symbol>
  <symbol id="add" width="100%" height="100%" viewBox="0 0 20 20" fill="currentColor">
  <path fill-rule="evenodd" d="M10 18a8 8 0 100-16 8 8 0 000 16zm1-11a1 1 0 10-2 0v2H7a1 1 0 100 2h2v2a1 1 0 102 0v-2h2a1 1 0 100-2h-2V7z" clip-rule="evenodd" />
 </symbol>
  <symbol id="close" width="100%" height="100%" viewBox="0 0 20 20" fill="currentColor">
  <path fill-rule="evenodd" d="M10 18a8 8 0 100-16 8 8 0 000 16zM8.707 7.293a1 1 0 00-1.414 1.414L8.586 10l-1.293 1.293a1 1 0 101.414 1.414L10 11.414l1.293 1.293a1 1 0 001.414-1.414L11.414 10l1.293-1.293a1 1 0 00-1.414-1.414L10 8.586 8.707 7.293z" clip-rule="evenodd" />
 </symbol>
  <symbol id="close-simple" width="100%" height="100%" viewBox="0 0 20 20" fill="currentColor">
  <path fill-rule="evenodd" d="M4.293 4.293a1 1 0 011.414 0L10 8.586l4.293-4.293a1 1 0 111.414 1.414L11.414 10l4.293 4.293a1 1 0 01-1.414 1.414L10 11.414l-4.293 4.293a1 1 0 01-1.414-1.414L8.586 10 4.293 5.707a1 1 0 010-1.414z" clip-rule="evenodd" />
 </symbol>
  <symbol id="reset" width="100%" height="100%" viewBox="0 0 20 20" fill="currentColor">
  <path fill-rule="evenodd" d="M4 2a1 1 0 011 1v2.101a7.002 7.002 0 0111.601 2.566 1 1 0 11-1.885.666A5.002 5.002 0 005.999 7H9a1 1 0 010 2H4a1 1 0 01-1-1V3a1 1 0 011-1zm.008 9.057a1 1 0 011.276.61A5.002 5.002 0 0014.001 13H11a1 1 0 110-2h5a1 1 0 011 1v5a1 1 0 11-2 0v-2.101a7.002 7.002 0 01-11.601-2.566 1 1 0 01.61-1.276z" clip-rule="evenodd" />
 </symbol>
  <symbol id="dots-vertical" width="100%" height="100%" viewBox="0 0 20 20" fill="currentColor">
  <path d="M10 6a2 2 0 110-4 2 2 0 010 4zM10 12a2 2 0 110-4 2 2 0 010 4zM10 18a2 2 0 110-4 2 2 0 010 4z" />
 </symbol>
  <symbol id="clock" width="100%" height="100%" viewBox="0 0 20 20" fill="currentColor">
  <path fill-rule="evenodd" d="M10 18a8 8 0 100-16 8 8 0 000 16zm1-12a1 1 0 10-2 0v4a1 1 0 00.293.707l2.828 2.829a1 1 0 101.415-1.415L11 9.586V6z" clip-rule="evenodd" />
  </symbol>
  <symbol id="search-circle" width="100%" height="100%" viewBox="0 0 20 20" fill="currentColor">
    <path d="M9 9a2 2 0 114 0 2 2 0 01-4 0z" />
    <path fill-rule="evenodd" d="M10 18a8 8 0 100-16 8 8 0 000 16zm1-13a4 4 0 00-3.446 6.032l-2.261 2.26a1 1 0 101.414 1.415l2.261-2.261A4 4 0 1011 5z" clip-rule="evenodd" />
  </symbol>
  <symbol id="users" width="100%" height="100%" viewBox="0 0 20 20" fill="currentColor">
    <path d="M9 6a3 3 0 11-6 0 3 3 0 016 0zM17 6a3 3 0 11-6 0 3 3 0 016 0zM12.93 17c.046-.327.07-.66.07-1a6.97 6.97 0 00-1.5-4.33A5 5 0 0119 16v1h-6.07zM6 11a5 5 0 015 5v1H1v-1a5 5 0 015-5z" />
  </symbol>
  <symbol id="help" width="100%" height="100%" viewBox="0 0 20 20" fill="currentColor">
    <path fill-rule="evenodd" d="M18 10a8 8 0 11-16 0 8 8 0 0116 0zm-2 0c0 .993-.241 1.929-.668 2.754l-1.524-1.525a3.997 3.997 0 00.078-2.183l1.562-1.562C15.802 8.249 16 9.1 16 10zm-5.165 3.913l1.58 1.58A5.98 5.98 0 0110 16a5.976 5.976 0 01-2.516-.552l1.562-1.562a4.006 4.006 0 001.789.027zm-4.677-2.796a4.002 4.002 0 01-.041-2.08l-.08.08-1.53-1.533A5.98 5.98 0 004 10c0 .954.223 1.856.619 2.657l1.54-1.54zm1.088-6.45A5.974 5.974 0 0110 4c.954 0 1.856.223 2.657.619l-1.54 1.54a4.002 4.002 0 00-2.346.033L7.246 4.668zM12 10a2 2 0 11-4 0 2 2 0 014 0z" clip-rule="evenodd" />
  </symbol>
  <symbol id="cog" width="100%" height="100%" viewBox="0 0 20 20" fill="currentColor">
    <path fill-rule="evenodd" d="M11.49 3.17c-.38-1.56-2.6-1.56-2.98 0a1.532 1.532 0 01-2.286.948c-1.372-.836-2.942.734-2.106 2.106.54.886.061 2.042-.947 2.287-1.561.379-1.561 2.6 0 2.978a1.532 1.532 0 01.947 2.287c-.836 1.372.734 2.942 2.106 2.106a1.532 1.532 0 012.287.947c.379 1.561 2.6 1.561 2.978 0a1.533 1.533 0 012.287-.947c1.372.836 2.942-.734 2.106-2.106a1.533 1.533 0 01.947-2.287c1.561-.379 1.561-2.6 0-2.978a1.532 1.532 0 01-.947-2.287c.836-1.372-.734-2.942-2.106-2.106a1.532 1.532 0 01-2.287-.947zM10 13a3 3 0 100-6 3 3 0 000 6z" clip-rule="evenodd" />
  </symbol>
  <symbol id="location" width="100%" height="100%" viewBox="0 0 20 20" fill="currentColor">
  <path fill-rule="evenodd" d="M5.05 4.05a7 7 0 119.9 9.9L10 18.9l-4.95-4.95a7 7 0 010-9.9zM10 11a2 2 0 100-4 2 2 0 000 4z" clip-rule="evenodd" />
  </symbol>
  <symbol id="grid" width="100%" height="100%" viewBox="0 0 20 20" fill="currentColor">
    <path d="M5 3a2 2 0 00-2 2v2a2 2 0 002 2h2a2 2 0 002-2V5a2 2 0 00-2-2H5zM5 11a2 2 0 00-2 2v2a2 2 0 002 2h2a2 2 0 002-2v-2a2 2 0 00-2-2H5zM11 5a2 2 0 012-2h2a2 2 0 012 2v2a2 2 0 01-2 2h-2a2 2 0 01-2-2V5zM11 13a2 2 0 012-2h2a2 2 0 012 2v2a2 2 0 01-2 2h-2a2 2 0 01-2-2v-2z" />
  </symbol>
  <symbol id="home" width="100%" height="100%" viewBox="0 0 20 20" fill="currentColor">
  <path d="M10.707 2.293a1 1 0 00-1.414 0l-7 7a1 1 0 001.414 1.414L4 10.414V17a1 1 0 001 1h2a1 1 0 001-1v-2a1 1 0 011-1h2a1 1 0 011 1v2a1 1 0 001 1h2a1 1 0 001-1v-6.586l.293.293a1 1 0 001.414-1.414l-7-7z" />
 </symbol>
  <symbol id="expand" width="100%" height="100%" viewBox="0 0 20 20" fill="currentColor">
    <path fill-rule="evenodd" d="M3 4a1 1 0 011-1h4a1 1 0 010 2H6.414l2.293 2.293a1 1 0 01-1.414 1.414L5 6.414V8a1 1 0 01-2 0V4zm9 1a1 1 0 110-2h4a1 1 0 011 1v4a1 1 0 11-2 0V6.414l-2.293 2.293a1 1 0 11-1.414-1.414L13.586 5H12zm-9 7a1 1 0 112 0v1.586l2.293-2.293a1 1 0 011.414 1.414L6.414 15H8a1 1 0 110 2H4a1 1 0 01-1-1v-4zm13-1a1 1 0 011 1v4a1 1 0 01-1 1h-4a1 1 0 110-2h1.586l-2.293-2.293a1 1 0 011.414-1.414L15 13.586V12a1 1 0 011-1z" clip-rule="evenodd" />
  </symbol>
  <symbol id="temperature" width="100%" height="100%" viewBox="0 0 20 20" fill="currentColor">
        <g transform="matrix(1,0,0,1,5.64351,1.50395)">
        <path d="M6.492,9.288L6.492,2.319C6.479,1.04 5.424,-0.004 4.147,-0.004C4.14,-0.004 4.134,-0.004 4.127,-0.004C2.845,-0.014 1.78,1.029 1.764,2.312L1.764,9.448C0.669,10.218 0.005,11.479 0,12.83L-0,12.835C0.032,15.144 1.949,17.017 4.254,16.996C6.56,17.017 8.478,15.141 8.508,12.834L8.508,12.829C8.496,11.37 7.725,10.031 6.492,9.288ZM5.358,10.492L5.357,10.491C6.283,10.9 6.887,11.816 6.898,12.828C6.876,14.261 5.688,15.422 4.258,15.409L4.253,15.409C2.815,15.426 1.621,14.263 1.6,12.83C1.607,11.903 2.114,11.05 2.923,10.601L3.1,10.503L3.363,10.287L3.363,2.326C3.369,1.917 3.709,1.586 4.118,1.59L4.123,1.59C4.537,1.586 4.877,1.917 4.883,2.326C4.883,2.326 4.883,10.231 4.883,10.231L5.383,10.455L5.183,10.413L5.358,10.492ZM6.769,9.021L8.713,9.021L8.713,7.973L6.769,7.973L6.769,9.021ZM6.769,7.133L8.713,7.133L8.713,6.085L6.769,6.085L6.769,7.133ZM6.769,5.281L8.713,5.281L8.713,4.229L6.769,4.229L6.769,5.281ZM6.769,3.394L8.713,3.394L8.713,2.342L6.769,2.342L6.769,3.394Z"/>
  </g>
  </symbol>

  <symbol id="document-download" width="100%" height="100%" viewBox="0 0 24 24" fill="none" stroke="currentColor">
  <path stroke-linecap="round" stroke-linejoin="round" stroke-width="2" d="M12 10v6m0 0l-3-3m3 3l3-3m2 8H7a2 2 0 01-2-2V5a2 2 0 012-2h5.586a1 1 0 01.707.293l5.414 5.414a1 1 0 01.293.707V19a2 2 0 01-2 2z" />
  </symbol>
  <symbol id="document-add" width="100%" height="100%" viewBox="0 0 24 24" fill="none" stroke="currentColor">
    <path stroke-linecap="round" stroke-linejoin="round" stroke-width="2" d="M9 13h6m-3-3v6m5 5H7a2 2 0 01-2-2V5a2 2 0 012-2h5.586a1 1 0 01.707.293l5.414 5.414a1 1 0 01.293.707V19a2 2 0 01-2 2z" />
  </symbol>
  <symbol id="document-remove" width="100%" height="100%" viewBox="0 0 24 24" fill="none" stroke="currentColor">
  <path stroke-linecap="round" stroke-linejoin="round" stroke-width="2" d="M9 13h6m2 8H7a2 2 0 01-2-2V5a2 2 0 012-2h5.586a1 1 0 01.707.293l5.414 5.414a1 1 0 01.293.707V19a2 2 0 01-2 2z" />
  </symbol>
  <symbol id="info" width="100%" height="100%" viewBox="0 0 20 20" fill="currentColor">
    <path fill-rule="evenodd" d="M18 10a8 8 0 11-16 0 8 8 0 0116 0zm-7-4a1 1 0 11-2 0 1 1 0 012 0zM9 9a1 1 0 000 2v3a1 1 0 001 1h1a1 1 0 100-2v-3a1 1 0 00-1-1H9z" clip-rule="evenodd" />
  </symbol>
  <symbol id="user-solid" width="100%" height="100%" viewBox="0 0 20 20" fill="currentColor">
  <path fill-rule="evenodd" d="M18 10a8 8 0 11-16 0 8 8 0 0116 0zm-6-3a2 2 0 11-4 0 2 2 0 014 0zm-2 4a5 5 0 00-4.546 2.916A5.986 5.986 0 0010 16a5.986 5.986 0 004.546-2.084A5 5 0 0010 11z" clip-rule="evenodd" />
 </symbol>
  <symbol id="tag" width="100%" height="100%" viewBox="0 0 20 20" fill="currentColor">
    <path fill-rule="evenodd" d="M17.707 9.293a1 1 0 010 1.414l-7 7a1 1 0 01-1.414 0l-7-7A.997.997 0 012 10V5a3 3 0 013-3h5c.256 0 .512.098.707.293l7 7zM5 6a1 1 0 100-2 1 1 0 000 2z" clip-rule="evenodd" />
  </symbol>
  <symbol id="arrow-down" width="100%" height="100%" viewBox="0 0 20 20" fill="currentColor">
    <path fill-rule="evenodd" d="M10 18a8 8 0 100-16 8 8 0 000 16zm1-11a1 1 0 10-2 0v3.586L7.707 9.293a1 1 0 00-1.414 1.414l3 3a1 1 0 001.414 0l3-3a1 1 0 00-1.414-1.414L11 10.586V7z" clip-rule="evenodd" />
  </symbol>
  <symbol id="arrow-up" width="100%" height="100%" viewBox="0 0 20 20" fill="currentColor">
    <path fill-rule="evenodd" d="M10 18a8 8 0 100-16 8 8 0 000 16zm3.707-8.707l-3-3a1 1 0 00-1.414 0l-3 3a1 1 0 001.414 1.414L9 9.414V13a1 1 0 102 0V9.414l1.293 1.293a1 1 0 001.414-1.414z" clip-rule="evenodd" />
  </symbol>
  <symbol id="arrow-left-classic" width="100%" height="100%" viewBox="0 0 20 20" fill="currentColor">
    <path fill-rule="evenodd" d="M9.707 16.707a1 1 0 01-1.414 0l-6-6a1 1 0 010-1.414l6-6a1 1 0 011.414 1.414L5.414 9H17a1 1 0 110 2H5.414l4.293 4.293a1 1 0 010 1.414z" clip-rule="evenodd" />
  </symbol>
  <symbol id="issue-fix" width="100%" height="100%" viewBox="0 0 20 20" fill="currentColor">
    <path id="Path_22697" data-name="Path 22697" d="M7.4,10.7h3.3V7.4L6.853,3.558a6.591,6.591,0,0,1,8.788,8.788l6.591,6.591a2.33,2.33,0,0,1-3.3,3.3l-6.591-6.591A6.591,6.591,0,0,1,3.558,6.853L7.4,10.7" transform="translate(-2.914 -2.914)" />
  </symbol>
  <symbol id="cancel" width="100%" height="100%" viewBox="0 0 20 20" fill="currentColor">
  <path fill-rule="evenodd" d="M13.477 14.89A6 6 0 015.11 6.524l8.367 8.368zm1.414-1.414L6.524 5.11a6 6 0 018.367 8.367zM18 10a8 8 0 11-16 0 8 8 0 0116 0z" clip-rule="evenodd" />
 </symbol>
  <symbol id="checkbox-solid" width="100%" height="100%" viewBox="0 0 20 20" fill="currentColor">
  <path fill-rule="evenodd" d="M10 18a8 8 0 100-16 8 8 0 000 16zm3.707-9.293a1 1 0 00-1.414-1.414L9 10.586 7.707 9.293a1 1 0 00-1.414 1.414l2 2a1 1 0 001.414 0l4-4z" clip-rule="evenodd" />
 </symbol>
  <symbol id="exclamation-circle" width="100%" height="100%" viewBox="0 0 20 20" fill="currentColor">
  <path fill-rule="evenodd" d="M18 10a8 8 0 11-16 0 8 8 0 0116 0zm-7 4a1 1 0 11-2 0 1 1 0 012 0zm-1-9a1 1 0 00-1 1v4a1 1 0 102 0V6a1 1 0 00-1-1z" clip-rule="evenodd" />
</symbol>
  <symbol id="chevron-double-left" width="100%" height="100%" viewBox="0 0 20 20" fill="currentColor">
    <path fill-rule="evenodd" d="M15.707 15.707a1 1 0 01-1.414 0l-5-5a1 1 0 010-1.414l5-5a1 1 0 111.414 1.414L11.414 10l4.293 4.293a1 1 0 010 1.414zm-6 0a1 1 0 01-1.414 0l-5-5a1 1 0 010-1.414l5-5a1 1 0 011.414 1.414L5.414 10l4.293 4.293a1 1 0 010 1.414z" clip-rule="evenodd" />
  </symbol>
  <symbol id="chevron-right" width="100%" height="100%" viewBox="0 0 20 20" fill="currentColor">
  <path fill-rule="evenodd" d="M7.293 14.707a1 1 0 010-1.414L10.586 10 7.293 6.707a1 1 0 011.414-1.414l4 4a1 1 0 010 1.414l-4 4a1 1 0 01-1.414 0z" clip-rule="evenodd" />
 </symbol>
  <symbol id="chevron-left" width="100%" height="100%" viewBox="0 0 20 20" fill="currentColor">
  <path fill-rule="evenodd" d="M12.707 5.293a1 1 0 010 1.414L9.414 10l3.293 3.293a1 1 0 01-1.414 1.414l-4-4a1 1 0 010-1.414l4-4a1 1 0 011.414 0z" clip-rule="evenodd" />
 </symbol>
  <symbol id="chevron-down" width="100%" height="100%" viewBox="0 0 20 20" fill="currentColor">
  <path fill-rule="evenodd" d="M5.293 7.293a1 1 0 011.414 0L10 10.586l3.293-3.293a1 1 0 111.414 1.414l-4 4a1 1 0 01-1.414 0l-4-4a1 1 0 010-1.414z" clip-rule="evenodd" />
  </symbol>
  <symbol id="chevron-up" width="100%" height="100%" viewBox="0 0 20 20" fill="currentColor">
  <path fill-rule="evenodd" d="M14.707 12.707a1 1 0 01-1.414 0L10 9.414l-3.293 3.293a1 1 0 01-1.414-1.414l4-4a1 1 0 011.414 0l4 4a1 1 0 010 1.414z" clip-rule="evenodd" />
 </symbol>
  <symbol id="issue-door" width="100%" height="100%" viewBox="0 0 11.902 20" fill="currentColor">
    <path id="Path_22698" data-name="Path 22698" d="M103.153,0V.882H99.7v17.6h1.275V2.157h2.174V20l8.453-1.52V1.523Zm1.555,10.685a.608.608,0,0,1-.514-.669.532.532,0,1,1,1.029,0A.608.608,0,0,1,104.708,10.685Z" transform="translate(-99.704)" />
  </symbol>
  <symbol id="issue-attention" width="100%" height="100%" viewBox="0 0 20 18.357" fill="currentColor">
    <path id="Path_22699" data-name="Path 22699" d="M10.119,3.424a2.637,2.637,0,0,1,4.6,0l7.359,13.082a2.636,2.636,0,0,1-2.3,3.93H5.058a2.637,2.637,0,0,1-2.3-3.93L10.119,3.424Zm3.617,13.057a1.319,1.319,0,1,1-1.319-1.319A1.319,1.319,0,0,1,13.736,16.481ZM12.417,5.931A1.319,1.319,0,0,0,11.1,7.25v3.956a1.319,1.319,0,0,0,2.638,0V7.25A1.319,1.319,0,0,0,12.417,5.931Z" transform="translate(-2.417 -2.079)" fill-rule="evenodd" />
  </symbol>
  <symbol id="temp_icon" width="18.769" height="40" viewBox="0 0 18.769 40">
    <g id="Group_7148" data-name="Group 7148" transform="translate(0 990.996)">
      <path id="Path_8432" data-name="Path 8432" d="M9.384-952.473a7.793,7.793,0,0,1-7.873-7.692,7.68,7.68,0,0,1,4.023-6.709l.386-.212v-19.356a3.117,3.117,0,0,1,3.149-3.077,3.117,3.117,0,0,1,3.149,3.077v19.085l.441.2a7.708,7.708,0,0,1,4.6,6.995A7.793,7.793,0,0,1,9.384-952.473Zm4.346-15.818v-18.151A4.613,4.613,0,0,0,9.07-991a4.613,4.613,0,0,0-4.661,4.554v18.5A9.14,9.14,0,0,0,0-960.165,9.289,9.289,0,0,0,9.384-951a9.289,9.289,0,0,0,9.384-9.169A9.174,9.174,0,0,0,13.73-968.292Z" transform="translate(0 0)" fill="#CDCEE4" />
      <path id="Path_8433" data-name="Path 8433" d="M109.033-712.3v-15.252s-.157-.7-1.24-.7-1.28.7-1.28.7v15.348a4.879,4.879,0,0,0-3.527,4.652,4.92,4.92,0,0,0,4.976,4.862,4.92,4.92,0,0,0,4.976-4.862A4.89,4.89,0,0,0,109.033-712.3Z" transform="translate(-98.83 -252.611)" fill="currentColor" />
      <path id="Path_8434" data-name="Path 8434" d="M361-881.651h4.2V-883H361Z" transform="translate(-346.429 -103.641)" fill="#CDCEE4" />
      <path id="Path_8435" data-name="Path 8435" d="M361-821.651h4.2V-823H361Z" transform="translate(-346.429 -161.219)" fill="#CDCEE4" />
      <path id="Path_8436" data-name="Path 8436" d="M361-762.762h4.2v-1.345H361Z" transform="translate(-346.429 -217.731)" fill="#CDCEE4" />
      <path id="Path_8437" data-name="Path 8437" d="M361-702.762h4.2v-1.345H361Z" transform="translate(-346.429 -275.309)" fill="#CDCEE4" />
      <path id="Path_8438" data-name="Path 8438" d="M361-643.873h4.2v-1.345H361Z" transform="translate(-346.429 -331.821)" fill="#CDCEE4" />
      <path id="Path_8439" data-name="Path 8439" d="M361-583.873h4.2v-1.345H361Z" transform="translate(-346.429 -389.399)" fill="#CDCEE4" />
      <path id="Path_8440" data-name="Path 8440" d="M361-524.985h4.2v-1.345H361Z" transform="translate(-346.429 -445.91)" fill="#CDCEE4" />
      <path id="Path_8441" data-name="Path 8441" d="M361-464.985h4.2v-1.345H361Z" transform="translate(-346.429 -503.489)" fill="#CDCEE4" />
    </g>
  </symbol>
</svg>