<svg
	xmlns="http://www.w3.org/2000/svg" style="display: none;">
	<symbol id="security" viewBox="0 0 18 18" class="fill-current">
		<g>
			<path d="M9.024,0l0.011,0l0.015,0.001l0.012,0.001l0.008,0.001l0.013,0l0.017,0.002l0.009,0.001l0.008,0.001l0.014,0.001l0.018,0.003l0.008,0.001l0.006,0.001l0.016,0.003l0.047,0.009l0.047,0.012l0.046,0.015l0.017,0.006l0.007,0.002l0.007,0.003l0.015,0.005l0.015,0.007l0.008,0.003l0.009,0.004l0.014,0.005l0.012,0.007l0.01,0.004l0.01,0.005l0.012,0.006l0.011,0.006l0.01,0.005l0.012,0.007l0.011,0.005l0.008,0.006l0.012,0.006l0.014,0.009l0.008,0.006l0.007,0.004l0.012,0.008l0.016,0.011l0.007,0.005l0.006,0.004l0.012,0.009l0.016,0.012l0.007,0.006l0.005,0.004l0.011,0.009l0.015,0.013l0.008,0.007c1.884,1.666 4.345,2.535 6.858,2.42c0.46,-0.021 0.875,0.275 1.005,0.717c0.314,1.07 0.474,2.179 0.474,3.294c-0,5.305 -3.614,9.976 -8.748,11.308c-0.165,0.042 -0.338,0.042 -0.503,-0c-5.135,-1.332 -8.749,-6.003 -8.749,-11.308c-0,-1.115 0.16,-2.224 0.474,-3.294c0.13,-0.442 0.545,-0.738 1.005,-0.717c2.513,0.115 4.975,-0.754 6.859,-2.42l0.008,-0.007l0.015,-0.013l0.011,-0.009l0.005,-0.004l0.007,-0.006l0.016,-0.012l0.012,-0.009l0.006,-0.004l0.007,-0.005l0.016,-0.011l0.012,-0.008l0.007,-0.004l0.008,-0.006l0.014,-0.009l0.012,-0.006l0.008,-0.006l0.011,-0.005l0.012,-0.007l0.01,-0.005l0.011,-0.006l0.012,-0.006l0.01,-0.005l0.009,-0.004l0.013,-0.007l0.014,-0.005l0.009,-0.004l0.008,-0.003l0.015,-0.007l0.015,-0.005l0.007,-0.003l0.007,-0.002l0.016,-0.006l0.047,-0.015l0.047,-0.012l0.047,-0.009l0.016,-0.003l0.006,-0.001l0.008,-0.001l0.018,-0.003l0.014,-0.001l0.008,-0.001l0.009,-0.001l0.017,-0.002l0.013,-0l0.008,-0.001l0.011,-0.001l0.016,-0.001l0.011,0l0.01,0l0.013,0l0.014,-0l0.01,0Zm-0.024,2.293c-1.955,1.489 -4.333,2.324 -6.79,2.384c-0.14,0.659 -0.21,1.33 -0.21,2.005c-0,4.31 2.878,8.114 7,9.303c4.123,-1.189 7,-4.993 7,-9.303c-0,-0.674 -0.07,-1.346 -0.21,-2.005c-2.457,-0.06 -4.835,-0.896 -6.79,-2.384Z" />
			<path d="M5.332,7.491l5.657,0c0.552,0 1,-0.448 1,-1c-0,-0.552 -0.448,-1 -1,-1l-5.657,0c-0.552,0 -1,0.448 -1,1c0,0.552 0.448,1 1,1Z" style="fill-opacity:0.9;" />
			<path d="M5.332,12.53l5.657,0c0.552,0 1,-0.448 1,-1c-0,-0.552 -0.448,-1 -1,-1l-5.657,0c-0.552,0 -1,0.448 -1,1c0,0.552 0.448,1 1,1Z" style="fill-opacity:0.8;" />
			<path d="M8.691,10.011l5.657,0c0.552,0 1,-0.448 1,-1c-0,-0.552 -0.448,-1 -1,-1l-5.657,0c-0.552,0 -1,0.448 -1,1c0,0.552 0.448,1 1,1Z" style="fill-opacity:0.5;" />
		</g>
	</symbol>
	<symbol id="chevron-right"  viewBox="0 0 9.345 16" fill="currentColor" stroke="none">
		<path
                  d="M8.93,3.586,7.586,4.93l6.655,6.655L7.586,18.241,8.93,19.586l8-8Z"
                  transform="translate(-7.586 -3.586)"
                  fill="currentColor"
                />
	</symbol>
	<symbol id="facebook"  fill="currentColor" stroke="none">
		<path
            d="M84.035,11.907V6.483h1.852l.265-2.117H84.035V3.043c0-.6.2-1.058,1.058-1.058h1.125V.066C85.953.066,85.292,0,84.564,0a2.554,2.554,0,0,0-2.712,2.778V4.366H80V6.483h1.852v5.424Z"
            transform="translate(-80)"
            fill="currentColor"
            fill-rule="evenodd"
          />
	</symbol>
	<symbol id="twitter"
          >
		<path
              d="M41.771,11.658a6.884,6.884,0,0,0,6.946-6.946V4.381a5.377,5.377,0,0,0,1.191-1.257,5.491,5.491,0,0,1-1.389.4A2.574,2.574,0,0,0,49.576,2.2a6.067,6.067,0,0,1-1.521.6A2.362,2.362,0,0,0,46.269,2a2.485,2.485,0,0,0-2.448,2.448,1.29,1.29,0,0,0,.066.529A6.839,6.839,0,0,1,38.86,2.4a2.533,2.533,0,0,0-.331,1.257A2.628,2.628,0,0,0,39.588,5.7a2.23,2.23,0,0,1-1.125-.331h0a2.418,2.418,0,0,0,1.984,2.381,2.039,2.039,0,0,1-.661.066,1.126,1.126,0,0,1-.463-.066,2.506,2.506,0,0,0,2.315,1.72A4.994,4.994,0,0,1,38.6,10.533a1.831,1.831,0,0,1-.6-.066,6.244,6.244,0,0,0,3.771,1.191"
              transform="translate(-38 -2)"
              fill="currentColor"
              fill-rule="evenodd"
            />
	</symbol>
	<symbol id="linkedin" width="13" height="13" viewBox="0 0 13 13">
		<g id="Component_371" data-name="Component 371" transform="translate(0.419 0.418)">
			<path
        id="LinkIn"
        d="M10.212,13V8.307c0-1.179-.4-1.983-1.412-1.983A1.532,1.532,0,0,0,7.372,7.39a2.047,2.047,0,0,0-.092.71V13H4.494s.036-7.949,0-8.772H7.28V5.471A2.749,2.749,0,0,1,9.791,4.022C11.624,4.022,13,5.277,13,7.971V13ZM.166,13V4.228H2.951V13ZM1.539,3.032A1.473,1.473,0,0,1,0,1.517,1.484,1.484,0,0,1,1.576,0,1.478,1.478,0,0,1,3.133,1.517,1.483,1.483,0,0,1,1.557,3.032Z"
        transform="translate(-0.419 -0.418)"
        fill="currentColor"
      />
		</g>
	</symbol>
	<symbol id="code" width="100%" height="100%" viewBox="0 0 24 24" fill="none">
		<path d="M2.58578 12L9.25 18.6642L10.6642 17.25L5.41421 12L10.6642 6.75001L9.25 5.33579L2.58578 12Z" fill="currentColor"/>
		<path d="M18.5858 12L13.3358 6.75001L14.75 5.33579L21.4142 12L14.75 18.6642L13.3358 17.25L18.5858 12Z" fill="currentColor"/>
	</symbol>
	<symbol id="cloud"
          width="100%" height="100%" viewBox="0 0 24 24" 
          fill="none"
        >
		<path
            fill-rule="evenodd"
            clip-rule="evenodd"
            d="M15 7C13.3352 7 11.8602 7.81266 10.9499 9.06732L10.4621 9.73946L9.71186 9.38352C9.19412 9.13791 8.61456 9 8 9C5.79086 9 4 10.7909 4 13C4 15.2091 5.79086 17 8 17C9.01987 17 9.94848 16.6196 10.6555 15.9915L11.2771 15.4391L11.9336 15.9497C12.7805 16.6083 13.8431 17 15 17C17.7614 17 20 14.7614 20 12C20 9.23858 17.7614 7 15 7ZM9.82739 7.28364C11.1065 5.88174 12.9503 5 15 5C18.866 5 22 8.13401 22 12C22 15.866 18.866 19 15 19C13.665 19 12.4156 18.6255 11.3533 17.9761C10.396 18.6222 9.24133 19 8 19C4.68629 19 2 16.3137 2 13C2 9.68629 4.68629 7 8 7C8.63615 7 9.25043 7.09933 9.82739 7.28364Z"
             fill="currentColor"
          />
	</symbol>
	<symbol id="comments"
          width="100%" height="100%" viewBox="0 0 24 24" 
          fill="none"
        >
		<path
            fill-rule="evenodd"
            clip-rule="evenodd"
            d="M2 2H19V7H22V21.9215L16.8165 18.2903H6.075V14.992L2 17.8464V2ZM6.075 12.5502V7H17V4H4V14.0036L6.075 12.5502ZM8.075 16.2903V9H20V18.0785L17.4474 16.2903H8.075Z"
             fill="currentColor"
          />
	</symbol>
	<symbol id="search"
          width="100%" height="100%" viewBox="0 0 24 24" 
          fill="none"
        >
		<path
            fill-rule="evenodd"
            clip-rule="evenodd"
            d="M11 2C6.02944 2 2 6.02944 2 11C2 15.9706 6.02944 20 11 20C13.125 20 15.078 19.2635 16.6177 18.0319L21 22.4142L22.4142 21L18.0319 16.6177C19.2635 15.078 20 13.125 20 11C20 6.02944 15.9706 2 11 2ZM4 11C4 7.13401 7.13401 4 11 4C14.866 4 18 7.13401 18 11C18 14.866 14.866 18 11 18C7.13401 18 4 14.866 4 11Z"
            fill="currentColor"
          />
	</symbol>
	<symbol id="stack"
          width="100%" height="100%" viewBox="0 0 24 24" 
          fill="none"
        >
		<path
            fill-rule="evenodd"
            clip-rule="evenodd"
            d="M12.0007 1.85263L22.0404 7.49998L12.0007 13.1473L1.96094 7.49998L12.0007 1.85263ZM6.0404 7.49998L12.0007 10.8526L17.9609 7.49998L12.0007 4.14733L6.0404 7.49998Z"
            fill="currentColor"
          />
		<path
            d="M3.61935 10.6382L12.0007 15.3527L20.382 10.6382L21.3625 12.3813L12.0007 17.6474L2.63883 12.3813L3.61935 10.6382Z"
            fill="currentColor"
          />
		<path
            d="M12.0007 19.8527L3.61935 15.1382L2.63883 16.8813L12.0007 22.1474L21.3625 16.8813L20.382 15.1382L12.0007 19.8527Z"
            fill="currentColor"
          />
	</symbol>
	<symbol id="lightbulb"
          width="100%" height="100%" viewBox="0 0 24 24" 
          fill="none"
        >
		<path
            fill-rule="evenodd"
            clip-rule="evenodd"
            d="M12 2C7.58172 2 4 5.58172 4 10C4 11.7994 4.59525 13.4626 5.59918 14.7996C6.09407 15.4587 6.66438 16.0336 7.19746 16.5572C7.27017 16.6286 7.34203 16.6989 7.41301 16.7684L7.41353 16.7689C7.87797 17.2233 8.30525 17.6413 8.69226 18.0941L9.03926 18.5H14.9607L15.3077 18.0941C15.6947 17.6414 16.122 17.2233 16.5865 16.7689C16.6576 16.6993 16.7297 16.6288 16.8025 16.5572C17.3356 16.0336 17.9059 15.4587 18.4008 14.7996C19.4047 13.4626 20 11.7994 20 10C20 5.58172 16.4183 2 12 2ZM6 10C6 6.68629 8.68629 4 12 4C15.3137 4 18 6.68629 18 10C18 11.3515 17.5543 12.5961 16.8015 13.5987C16.4053 14.1263 15.931 14.6099 15.4012 15.1303C15.3333 15.1969 15.2642 15.2644 15.1943 15.3327C14.8216 15.6972 14.4241 16.0857 14.0475 16.5H9.95255C9.57586 16.0857 9.17841 15.6972 8.80566 15.3327L8.80515 15.3322C8.73542 15.2641 8.66655 15.1967 8.59884 15.1303C8.06901 14.6099 7.59471 14.1263 7.19849 13.5987C6.44568 12.5961 6 11.3515 6 10Z"
             fill="currentColor"
          />
		<path d="M15 22V20H9V22H15Z"  fill="currentColor" />
	</symbol>
	<symbol id="pencil"
          width="100%" height="100%" viewBox="0 0 24 24" 
          fill="none"
        >
		<path
            fill-rule="evenodd"
            clip-rule="evenodd"
            d="M16.4493 1.89346L22.1061 7.55032L9.0853 20.5711L3.42845 20.5711L3.42845 14.9143L16.4493 1.89346ZM16.4493 4.72189L15.0262 6.14495L17.8546 8.97337L19.2777 7.55032L16.4493 4.72189ZM16.4404 10.3876L13.612 7.55916L5.42845 15.7427L5.42845 18.5711L8.25688 18.5711L16.4404 10.3876Z"
            fill="currentColor"
          />
	</symbol>
	<symbol id="calendar"
          width="100%" height="100%" viewBox="0 0 24 24" 
          fill="none"
        >
		<path d="M6 9.375H8.5V11.875H6V9.375Z" fill="currentColor" />
		<path d="M8.5 14.125H6V16.625H8.5V14.125Z" fill="currentColor" />
		<path d="M10.75 9.375H13.25V11.875H10.75V9.375Z" fill="currentColor" />
		<path d="M13.25 14.125H10.75V16.625H13.25V14.125Z" fill="currentColor" />
		<path d="M15.5 9.375H18V11.875H15.5V9.375Z" fill="currentColor" />
		<path d="M18 14.125H15.5V16.625H18V14.125Z" fill="currentColor" />
		<path
            fill-rule="evenodd"
            clip-rule="evenodd"
            d="M5 5H2V21H22V5H19V2H17V5H7V2H5V5ZM4 7V19H20V7H4Z"
           fill="currentColor"
          />
	</symbol>
</svg>

