<?xml version="1.0" encoding="UTF-8" standalone="no"?>
<!DOCTYPE svg PUBLIC "-//W3C//DTD SVG 1.1//EN" "http://www.w3.org/Graphics/SVG/1.1/DTD/svg11.dtd">
<svg width="100%" height="100%" viewBox="0 0 1280 2" version="1.1" xmlns="http://www.w3.org/2000/svg" xmlns:xlink="http://www.w3.org/1999/xlink" xml:space="preserve" xmlns:serif="http://www.serif.com/" style="fill-rule:evenodd;clip-rule:evenodd;">
    <g transform="matrix(1,0,0,0.0119117,0,0.146433)">
        <g>
            <g id="Path_13139" transform="matrix(1,0,0,0.0269073,69.362,-12.2932)">
                <path d="M0.552,0L0,6240" style="fill:none;fill-rule:nonzero;stroke:white;stroke-opacity:0.5;stroke-width:1.41px;"/>
            </g>
            <g id="Path_13139-2" transform="matrix(1,0,0,0.0269073,325.109,-26.214)">
                <path d="M-0.61,517.364L0.059,6407.36" style="fill:none;fill-rule:nonzero;stroke:white;stroke-opacity:0.5;stroke-width:1.41px;"/>
            </g>
            <g id="Path_13139-3" transform="matrix(1,0,0,0.0269073,535.138,-12.2932)">
                <path d="M0.5,0L0,5890" style="fill:none;fill-rule:nonzero;stroke:white;stroke-opacity:0.5;stroke-width:1.41px;"/>
            </g>
            <g id="Path_13139-4" transform="matrix(1,0,0,0.0269073,745.138,-12.2932)">
                <path d="M0.5,0L0,5890" style="fill:none;fill-rule:nonzero;stroke:white;stroke-opacity:0.5;stroke-width:1.41px;"/>
            </g>
            <g id="Path_13139-5" transform="matrix(1,0,0,0.0269073,955.138,-12.2932)">
                <path d="M0.5,0L0,5890" style="fill:none;fill-rule:nonzero;stroke:white;stroke-opacity:0.5;stroke-width:1.41px;"/>
            </g>
            <g id="Path_13139-6" transform="matrix(1,0,0,0.0269073,1210.14,-12.2932)">
                <path d="M0.5,0L0,5890" style="fill:none;fill-rule:nonzero;stroke:white;stroke-opacity:0.5;stroke-width:1.41px;"/>
            </g>
        </g>
    </g>
</svg>
